REM DIRINDEX 1\2,1\4,1\5,1\6,1\7,1\3\8,1\3\9,1\3\10
REM DIRNAME cjc113,folder01,folder02,folder03,folder04,folder05,folder06,folder07,folder08,folder09
TITLE ""
FILE "DB4500_5th_1A_08.mp3" MP3
  TRACK 01 AUDIO
    TITLE "0:"
    INDEX 01 00:00:00
  TRACK 02 AUDIO
    TITLE "8:cjc113_0351"
    INDEX 01 00:00:01
  TRACK 03 AUDIO
    TITLE "0:"
    INDEX 01 00:01:46
  TRACK 04 AUDIO
    TITLE "9:cjc113_0352"
    INDEX 01 00:01:62
  TRACK 05 AUDIO
    TITLE "0:"
    INDEX 01 00:03:17
  TRACK 06 AUDIO
    TITLE "10:cjc113_0353"
    INDEX 01 00:03:37
  TRACK 07 AUDIO
    TITLE "0:"
    INDEX 01 00:06:30
  TRACK 08 AUDIO
    TITLE "8:cjc113_0354"
    INDEX 01 00:06:73
  TRACK 09 AUDIO
    TITLE "0:"
    INDEX 01 00:08:34
  TRACK 10 AUDIO
    TITLE "9:cjc113_0355"
    INDEX 01 00:08:52
  TRACK 11 AUDIO
    TITLE "0:"
    INDEX 01 00:09:73
  TRACK 12 AUDIO
    TITLE "10:cjc113_0356"
    INDEX 01 00:10:18
  TRACK 13 AUDIO
    TITLE "0:"
    INDEX 01 00:14:37
  TRACK 14 AUDIO
    TITLE "8:cjc113_0357"
    INDEX 01 00:15:01
  TRACK 15 AUDIO
    TITLE "0:"
    INDEX 01 00:16:12
  TRACK 16 AUDIO
    TITLE "9:cjc113_0358"
    INDEX 01 00:16:30
  TRACK 17 AUDIO
    TITLE "0:"
    INDEX 01 00:17:55
  TRACK 18 AUDIO
    TITLE "10:cjc113_0359"
    INDEX 01 00:18:01
  TRACK 19 AUDIO
    TITLE "0:"
    INDEX 01 00:22:01
  TRACK 20 AUDIO
    TITLE "8:cjc113_0360"
    INDEX 01 00:22:48
  TRACK 21 AUDIO
    TITLE "0:"
    INDEX 01 00:23:51
  TRACK 22 AUDIO
    TITLE "9:cjc113_0361"
    INDEX 01 00:23:69
  TRACK 23 AUDIO
    TITLE "0:"
    INDEX 01 00:25:07
  TRACK 24 AUDIO
    TITLE "10:cjc113_0362"
    INDEX 01 00:25:25
  TRACK 25 AUDIO
    TITLE "0:"
    INDEX 01 00:27:57
  TRACK 26 AUDIO
    TITLE "10:cjc113_0363"
    INDEX 01 00:28:29
  TRACK 27 AUDIO
    TITLE "0:"
    INDEX 01 00:31:12
  TRACK 28 AUDIO
    TITLE "8:cjc113_0364"
    INDEX 01 00:31:55
  TRACK 29 AUDIO
    TITLE "0:"
    INDEX 01 00:33:01
  TRACK 30 AUDIO
    TITLE "9:cjc113_0365"
    INDEX 01 00:33:21
  TRACK 31 AUDIO
    TITLE "0:"
    INDEX 01 00:34:24
  TRACK 32 AUDIO
    TITLE "10:cjc113_0366"
    INDEX 01 00:34:42
  TRACK 33 AUDIO
    TITLE "0:"
    INDEX 01 00:38:04
  TRACK 34 AUDIO
    TITLE "8:cjc113_0367"
    INDEX 01 00:38:49
  TRACK 35 AUDIO
    TITLE "0:"
    INDEX 01 00:39:62
  TRACK 36 AUDIO
    TITLE "9:cjc113_0368"
    INDEX 01 00:40:05
  TRACK 37 AUDIO
    TITLE "0:"
    INDEX 01 00:41:40
  TRACK 38 AUDIO
    TITLE "10:cjc113_0369"
    INDEX 01 00:41:59
  TRACK 39 AUDIO
    TITLE "0:"
    INDEX 01 00:44:52
  TRACK 40 AUDIO
    TITLE "8:cjc113_0370"
    INDEX 01 00:45:22
  TRACK 41 AUDIO
    TITLE "0:"
    INDEX 01 00:46:25
  TRACK 42 AUDIO
    TITLE "9:cjc113_0371"
    INDEX 01 00:46:43
  TRACK 43 AUDIO
    TITLE "0:"
    INDEX 01 00:48:04
  TRACK 44 AUDIO
    TITLE "10:cjc113_0372"
    INDEX 01 00:48:22
  TRACK 45 AUDIO
    TITLE "0:"
    INDEX 01 00:52:24
  TRACK 46 AUDIO
    TITLE "8:cjc113_0373"
    INDEX 01 00:52:65
  TRACK 47 AUDIO
    TITLE "0:"
    INDEX 01 00:54:01
  TRACK 48 AUDIO
    TITLE "9:cjc113_0374"
    INDEX 01 00:54:25
  TRACK 49 AUDIO
    TITLE "0:"
    INDEX 01 00:55:46
  TRACK 50 AUDIO
    TITLE "10:cjc113_0375"
    INDEX 01 00:55:67
  TRACK 51 AUDIO
    TITLE "0:"
    INDEX 01 00:58:73
  TRACK 52 AUDIO
    TITLE "10:cjc113_0376"
    INDEX 01 00:59:43
  TRACK 53 AUDIO
    TITLE "0:"
    INDEX 01 01:02:54
  TRACK 54 AUDIO
    TITLE "8:cjc113_0377"
    INDEX 01 01:03:26
  TRACK 55 AUDIO
    TITLE "0:"
    INDEX 01 01:04:33
  TRACK 56 AUDIO
    TITLE "9:cjc113_0378"
    INDEX 01 01:04:56
  TRACK 57 AUDIO
    TITLE "0:"
    INDEX 01 01:05:58
  TRACK 58 AUDIO
    TITLE "10:cjc113_0379"
    INDEX 01 01:06:06
  TRACK 59 AUDIO
    TITLE "0:"
    INDEX 01 01:08:03
  TRACK 60 AUDIO
    TITLE "10:cjc113_0380"
    INDEX 01 01:09:01
  TRACK 61 AUDIO
    TITLE "0:"
    INDEX 01 01:11:15
  TRACK 62 AUDIO
    TITLE "8:cjc113_0381"
    INDEX 01 01:11:62
  TRACK 63 AUDIO
    TITLE "0:"
    INDEX 01 01:12:71
  TRACK 64 AUDIO
    TITLE "9:cjc113_0382"
    INDEX 01 01:13:16
  TRACK 65 AUDIO
    TITLE "0:"
    INDEX 01 01:14:27
  TRACK 66 AUDIO
    TITLE "10:cjc113_0383"
    INDEX 01 01:14:49
  TRACK 67 AUDIO
    TITLE "0:"
    INDEX 01 01:16:60
  TRACK 68 AUDIO
    TITLE "10:cjc113_0384"
    INDEX 01 01:17:28
  TRACK 69 AUDIO
    TITLE "0:"
    INDEX 01 01:19:40
  TRACK 70 AUDIO
    TITLE "8:cjc113_0385"
    INDEX 01 01:20:14
  TRACK 71 AUDIO
    TITLE "0:"
    INDEX 01 01:21:23
  TRACK 72 AUDIO
    TITLE "9:cjc113_0386"
    INDEX 01 01:21:43
  TRACK 73 AUDIO
    TITLE "0:"
    INDEX 01 01:22:66
  TRACK 74 AUDIO
    TITLE "10:cjc113_0387"
    INDEX 01 01:23:16
  TRACK 75 AUDIO
    TITLE "0:"
    INDEX 01 01:25:45
  TRACK 76 AUDIO
    TITLE "10:cjc113_0388"
    INDEX 01 01:26:19
  TRACK 77 AUDIO
    TITLE "0:"
    INDEX 01 01:28:55
